<?xml version="1.0" encoding="UTF-8"?>

<svg version="1.2" baseProfile="tiny" width="150mm" height="92mm" viewBox="0 0 15000 9200" preserveAspectRatio="xMidYMid" fill-rule="evenodd" clip-path="url(#presentation_clip_path)" stroke-width="28.222" stroke-linejoin="round" xmlns="http://www.w3.org/2000/svg" xmlns:ooo="http://xml.openoffice.org/svg/export" xmlns:xlink="http://www.w3.org/1999/xlink" xml:space="preserve">
 <defs class="ClipPathGroup">
  <clipPath id="presentation_clip_path" clipPathUnits="userSpaceOnUse">
   <rect x="0" y="0" width="15000" height="9200"/>
  </clipPath>
 </defs>
 <defs class="TextShapeIndex">
  <g ooo:slide="id1" ooo:id-list="id3 id4 id5 id6 id7 id8 id9 id10 id11 id12 id13 id14 id15 id16 id17 id18 id19 id20 id21 id22 id23 id24"/>
 </defs>
 <defs class="EmbeddedBulletChars">
  <g id="bullet-char-template(57356)" transform="scale(0.00048828125,-0.00048828125)">
   <path d="M 580,1141 L 1163,571 580,0 -4,571 580,1141 Z"/>
  </g>
  <g id="bullet-char-template(57354)" transform="scale(0.00048828125,-0.00048828125)">
   <path d="M 8,1128 L 1137,1128 1137,0 8,0 8,1128 Z"/>
  </g>
  <g id="bullet-char-template(10146)" transform="scale(0.00048828125,-0.00048828125)">
   <path d="M 174,0 L 602,739 174,1481 1456,739 174,0 Z M 1358,739 L 309,1346 659,739 1358,739 Z"/>
  </g>
  <g id="bullet-char-template(10132)" transform="scale(0.00048828125,-0.00048828125)">
   <path d="M 2015,739 L 1276,0 717,0 1260,543 174,543 174,936 1260,936 717,1481 1274,1481 2015,739 Z"/>
  </g>
  <g id="bullet-char-template(10007)" transform="scale(0.00048828125,-0.00048828125)">
   <path d="M 0,-2 C -7,14 -16,27 -25,37 L 356,567 C 262,823 215,952 215,954 215,979 228,992 255,992 264,992 276,990 289,987 310,991 331,999 354,1012 L 381,999 492,748 772,1049 836,1024 860,1049 C 881,1039 901,1025 922,1006 886,937 835,863 770,784 769,783 710,716 594,584 L 774,223 C 774,196 753,168 711,139 L 727,119 C 717,90 699,76 672,76 641,76 570,178 457,381 L 164,-76 C 142,-110 111,-127 72,-127 30,-127 9,-110 8,-76 1,-67 -2,-52 -2,-32 -2,-23 -1,-13 0,-2 Z"/>
  </g>
  <g id="bullet-char-template(10004)" transform="scale(0.00048828125,-0.00048828125)">
   <path d="M 285,-33 C 182,-33 111,30 74,156 52,228 41,333 41,471 41,549 55,616 82,672 116,743 169,778 240,778 293,778 328,747 346,684 L 369,508 C 377,444 397,411 428,410 L 1163,1116 C 1174,1127 1196,1133 1229,1133 1271,1133 1292,1118 1292,1087 L 1292,965 C 1292,929 1282,901 1262,881 L 442,47 C 390,-6 338,-33 285,-33 Z"/>
  </g>
  <g id="bullet-char-template(9679)" transform="scale(0.00048828125,-0.00048828125)">
   <path d="M 813,0 C 632,0 489,54 383,161 276,268 223,411 223,592 223,773 276,916 383,1023 489,1130 632,1184 813,1184 992,1184 1136,1130 1245,1023 1353,916 1407,772 1407,592 1407,412 1353,268 1245,161 1136,54 992,0 813,0 Z"/>
  </g>
  <g id="bullet-char-template(8226)" transform="scale(0.00048828125,-0.00048828125)">
   <path d="M 346,457 C 273,457 209,483 155,535 101,586 74,649 74,723 74,796 101,859 155,911 209,963 273,989 346,989 419,989 480,963 531,910 582,859 608,796 608,723 608,648 583,586 532,535 482,483 420,457 346,457 Z"/>
  </g>
  <g id="bullet-char-template(8211)" transform="scale(0.00048828125,-0.00048828125)">
   <path d="M -4,459 L 1135,459 1135,606 -4,606 -4,459 Z"/>
  </g>
 </defs>
 <defs class="TextEmbeddedBitmaps"/>
 <g>
  <g id="id2" class="Master_Slide">
   <g id="bg-id2" class="Background"/>
   <g id="bo-id2" class="BackgroundObjects"/>
  </g>
 </g>
 <g class="SlideGroup">
  <g>
   <g id="id1" class="Slide" clip-path="url(#presentation_clip_path)">
    <g class="Page">
     <g class="com.sun.star.drawing.LineShape">
      <g id="id3">
       <path fill="none" stroke="rgb(0,0,0)" stroke-width="50" stroke-linejoin="round" d="M 3001,7000 L 3030,6906"/>
       <path fill="none" stroke="rgb(0,0,0)" stroke-width="50" stroke-linejoin="round" d="M 3060,6812 L 3089,6718"/>
       <path fill="none" stroke="rgb(0,0,0)" stroke-width="50" stroke-linejoin="round" d="M 3118,6624 L 3148,6530"/>
       <path fill="none" stroke="rgb(0,0,0)" stroke-width="50" stroke-linejoin="round" d="M 3177,6436 L 3207,6342"/>
       <path fill="none" stroke="rgb(0,0,0)" stroke-width="50" stroke-linejoin="round" d="M 3236,6248 L 3265,6154"/>
       <path fill="none" stroke="rgb(0,0,0)" stroke-width="50" stroke-linejoin="round" d="M 3295,6060 L 3324,5966"/>
       <path fill="none" stroke="rgb(0,0,0)" stroke-width="50" stroke-linejoin="round" d="M 3353,5872 L 3383,5778"/>
       <path fill="none" stroke="rgb(0,0,0)" stroke-width="50" stroke-linejoin="round" d="M 3412,5684 L 3441,5590"/>
       <path fill="none" stroke="rgb(0,0,0)" stroke-width="50" stroke-linejoin="round" d="M 3471,5496 L 3500,5402"/>
       <path fill="none" stroke="rgb(0,0,0)" stroke-width="50" stroke-linejoin="round" d="M 3530,5308 L 3559,5214"/>
       <path fill="none" stroke="rgb(0,0,0)" stroke-width="50" stroke-linejoin="round" d="M 3588,5120 L 3618,5026"/>
       <path fill="none" stroke="rgb(0,0,0)" stroke-width="50" stroke-linejoin="round" d="M 3647,4932 L 3676,4837"/>
       <path fill="none" stroke="rgb(0,0,0)" stroke-width="50" stroke-linejoin="round" d="M 3706,4743 L 3735,4649"/>
       <path fill="none" stroke="rgb(0,0,0)" stroke-width="50" stroke-linejoin="round" d="M 3764,4555 L 3794,4461"/>
       <path fill="none" stroke="rgb(0,0,0)" stroke-width="50" stroke-linejoin="round" d="M 3823,4367 L 3853,4273"/>
       <path fill="none" stroke="rgb(0,0,0)" stroke-width="50" stroke-linejoin="round" d="M 3882,4179 L 3911,4085"/>
       <path fill="none" stroke="rgb(0,0,0)" stroke-width="50" stroke-linejoin="round" d="M 3941,3991 L 3970,3897"/>
       <path fill="none" stroke="rgb(0,0,0)" stroke-width="50" stroke-linejoin="round" d="M 3999,3803 L 4029,3709"/>
       <path fill="none" stroke="rgb(0,0,0)" stroke-width="50" stroke-linejoin="round" d="M 4058,3615 L 4087,3521"/>
       <path fill="none" stroke="rgb(0,0,0)" stroke-width="50" stroke-linejoin="round" d="M 4117,3427 L 4146,3333"/>
       <path fill="none" stroke="rgb(0,0,0)" stroke-width="50" stroke-linejoin="round" d="M 4175,3239 L 4205,3145"/>
       <path fill="none" stroke="rgb(0,0,0)" stroke-width="50" stroke-linejoin="round" d="M 4234,3051 L 4264,2957"/>
       <path fill="none" stroke="rgb(0,0,0)" stroke-width="50" stroke-linejoin="round" d="M 4293,2863 L 4322,2769"/>
       <path fill="none" stroke="rgb(0,0,0)" stroke-width="50" stroke-linejoin="round" d="M 4352,2675 L 4381,2581"/>
       <path fill="none" stroke="rgb(0,0,0)" stroke-width="50" stroke-linejoin="round" d="M 4410,2487 L 4440,2393"/>
       <path fill="none" stroke="rgb(0,0,0)" stroke-width="50" stroke-linejoin="round" d="M 4469,2299 L 4498,2205"/>
      </g>
     </g>
     <g class="com.sun.star.drawing.LineShape">
      <g id="id4">
       <path fill="none" stroke="rgb(0,0,0)" stroke-width="50" stroke-linejoin="round" d="M 3000,7000 L 3094,6971"/>
       <path fill="none" stroke="rgb(0,0,0)" stroke-width="50" stroke-linejoin="round" d="M 3189,6943 L 3283,6914"/>
       <path fill="none" stroke="rgb(0,0,0)" stroke-width="50" stroke-linejoin="round" d="M 3377,6886 L 3471,6857"/>
       <path fill="none" stroke="rgb(0,0,0)" stroke-width="50" stroke-linejoin="round" d="M 3566,6829 L 3660,6800"/>
       <path fill="none" stroke="rgb(0,0,0)" stroke-width="50" stroke-linejoin="round" d="M 3754,6772 L 3848,6743"/>
       <path fill="none" stroke="rgb(0,0,0)" stroke-width="50" stroke-linejoin="round" d="M 3943,6715 L 4037,6686"/>
       <path fill="none" stroke="rgb(0,0,0)" stroke-width="50" stroke-linejoin="round" d="M 4131,6658 L 4226,6629"/>
       <path fill="none" stroke="rgb(0,0,0)" stroke-width="50" stroke-linejoin="round" d="M 4320,6601 L 4414,6572"/>
       <path fill="none" stroke="rgb(0,0,0)" stroke-width="50" stroke-linejoin="round" d="M 4508,6543 L 4603,6515"/>
       <path fill="none" stroke="rgb(0,0,0)" stroke-width="50" stroke-linejoin="round" d="M 4697,6486 L 4791,6458"/>
       <path fill="none" stroke="rgb(0,0,0)" stroke-width="50" stroke-linejoin="round" d="M 4886,6429 L 4980,6401"/>
       <path fill="none" stroke="rgb(0,0,0)" stroke-width="50" stroke-linejoin="round" d="M 5074,6372 L 5168,6344"/>
       <path fill="none" stroke="rgb(0,0,0)" stroke-width="50" stroke-linejoin="round" d="M 5263,6315 L 5357,6287"/>
       <path fill="none" stroke="rgb(0,0,0)" stroke-width="50" stroke-linejoin="round" d="M 5451,6258 L 5545,6230"/>
       <path fill="none" stroke="rgb(0,0,0)" stroke-width="50" stroke-linejoin="round" d="M 5640,6201 L 5734,6173"/>
       <path fill="none" stroke="rgb(0,0,0)" stroke-width="50" stroke-linejoin="round" d="M 5828,6144 L 5923,6116"/>
       <path fill="none" stroke="rgb(0,0,0)" stroke-width="50" stroke-linejoin="round" d="M 6017,6087 L 6111,6058"/>
       <path fill="none" stroke="rgb(0,0,0)" stroke-width="50" stroke-linejoin="round" d="M 6205,6030 L 6300,6001"/>
       <path fill="none" stroke="rgb(0,0,0)" stroke-width="50" stroke-linejoin="round" d="M 6394,5973 L 6488,5944"/>
       <path fill="none" stroke="rgb(0,0,0)" stroke-width="50" stroke-linejoin="round" d="M 6583,5916 L 6677,5887"/>
       <path fill="none" stroke="rgb(0,0,0)" stroke-width="50" stroke-linejoin="round" d="M 6771,5859 L 6865,5830"/>
       <path fill="none" stroke="rgb(0,0,0)" stroke-width="50" stroke-linejoin="round" d="M 6960,5802 L 7054,5773"/>
       <path fill="none" stroke="rgb(0,0,0)" stroke-width="50" stroke-linejoin="round" d="M 7148,5745 L 7242,5716"/>
       <path fill="none" stroke="rgb(0,0,0)" stroke-width="50" stroke-linejoin="round" d="M 7337,5688 L 7431,5659"/>
       <path fill="none" stroke="rgb(0,0,0)" stroke-width="50" stroke-linejoin="round" d="M 7525,5630 L 7620,5602"/>
       <path fill="none" stroke="rgb(0,0,0)" stroke-width="50" stroke-linejoin="round" d="M 7714,5573 L 7808,5545"/>
       <path fill="none" stroke="rgb(0,0,0)" stroke-width="50" stroke-linejoin="round" d="M 7902,5516 L 7997,5488"/>
       <path fill="none" stroke="rgb(0,0,0)" stroke-width="50" stroke-linejoin="round" d="M 8091,5459 L 8185,5431"/>
       <path fill="none" stroke="rgb(0,0,0)" stroke-width="50" stroke-linejoin="round" d="M 8280,5402 L 8374,5374"/>
       <path fill="none" stroke="rgb(0,0,0)" stroke-width="50" stroke-linejoin="round" d="M 8468,5345 L 8562,5317"/>
       <path fill="none" stroke="rgb(0,0,0)" stroke-width="50" stroke-linejoin="round" d="M 8657,5288 L 8751,5260"/>
       <path fill="none" stroke="rgb(0,0,0)" stroke-width="50" stroke-linejoin="round" d="M 8845,5231 L 8939,5203"/>
       <path fill="none" stroke="rgb(0,0,0)" stroke-width="50" stroke-linejoin="round" d="M 9034,5174 L 9128,5145"/>
       <path fill="none" stroke="rgb(0,0,0)" stroke-width="50" stroke-linejoin="round" d="M 9222,5117 L 9317,5088"/>
       <path fill="none" stroke="rgb(0,0,0)" stroke-width="50" stroke-linejoin="round" d="M 9411,5060 L 9505,5031"/>
       <path fill="none" stroke="rgb(0,0,0)" stroke-width="50" stroke-linejoin="round" d="M 9599,5003 L 9694,4974"/>
       <path fill="none" stroke="rgb(0,0,0)" stroke-width="50" stroke-linejoin="round" d="M 9788,4946 L 9882,4917"/>
       <path fill="none" stroke="rgb(0,0,0)" stroke-width="50" stroke-linejoin="round" d="M 9977,4889 L 10071,4860"/>
       <path fill="none" stroke="rgb(0,0,0)" stroke-width="50" stroke-linejoin="round" d="M 10165,4832 L 10259,4803"/>
       <path fill="none" stroke="rgb(0,0,0)" stroke-width="50" stroke-linejoin="round" d="M 10354,4775 L 10448,4746"/>
       <path fill="none" stroke="rgb(0,0,0)" stroke-width="50" stroke-linejoin="round" d="M 10542,4717 L 10600,4700"/>
      </g>
     </g>
     <g class="com.sun.star.drawing.LineShape">
      <g id="id5">
       <path fill="none" stroke="rgb(0,0,0)" stroke-width="50" stroke-linejoin="round" d="M 3000,7000 L 3000,2038"/>
       <path fill="rgb(0,0,0)" stroke="none" d="M 3000,1500 L 2813,2063 3188,2063 3000,1500 Z"/>
      </g>
     </g>
     <g class="com.sun.star.drawing.LineShape">
      <g id="id6">
       <path fill="none" stroke="rgb(0,0,0)" stroke-width="50" stroke-linejoin="round" d="M 3000,7000 L 13163,7000"/>
       <path fill="rgb(0,0,0)" stroke="none" d="M 13700,7000 L 13138,6813 13138,7188 13700,7000 Z"/>
      </g>
     </g>
     <g class="com.sun.star.drawing.OpenBezierShape">
      <g id="id7">
       <path fill="none" stroke="rgb(0,0,0)" stroke-width="100" stroke-linejoin="round" d="M 3000,7000 C 4200,6700 4200,6600 5600,6200 6300,5900 3800,4800 4100,3600 4400,2400 4300,3000 4700,1600"/>
      </g>
     </g>
     <g class="com.sun.star.drawing.CustomShape">
      <g id="id8">
       <path fill="rgb(0,0,255)" stroke="none" d="M 5350,6020 C 5492,6020 5600,6128 5600,6270 5600,6412 5492,6520 5350,6520 5208,6520 5100,6412 5100,6270 5100,6128 5208,6020 5350,6020 Z M 5100,6020 L 5100,6020 Z M 5601,6521 L 5601,6521 Z"/>
      </g>
     </g>
     <g class="Graphic">
      <g id="id9">
       <path fill="rgb(0,0,0)" stroke="none" d="M 2748,1421 C 2759,1421 2795,1421 2795,1387 2795,1365 2776,1365 2757,1365 L 2534,1365 C 2387,1365 2279,1527 2279,1644 2279,1730 2337,1797 2426,1797 2540,1797 2671,1680 2671,1530 2671,1513 2671,1465 2640,1421 L 2748,1421 Z M 2426,1778 C 2379,1778 2340,1741 2340,1672 2340,1641 2351,1560 2385,1504 2426,1435 2484,1421 2518,1421 2601,1421 2607,1488 2607,1516 2607,1563 2587,1644 2554,1694 2518,1750 2465,1778 2426,1778 Z"/>
      </g>
     </g>
     <g class="Graphic">
      <g id="id10">
       <path fill="rgb(0,0,0)" stroke="none" d="M 13500,7285 C 13500,7257 13478,7232 13447,7232 13414,7232 13394,7260 13394,7285 13394,7310 13416,7335 13447,7335 13481,7335 13500,7307 13500,7285 Z"/>
       <path fill="rgb(0,0,0)" stroke="none" d="M 13204,7637 C 13243,7525 13349,7523 13361,7523 13508,7523 13520,7696 13520,7774 13520,7833 13514,7850 13508,7869 13486,7942 13455,8053 13455,8081 13455,8090 13461,8098 13469,8098 13483,8098 13489,8076 13500,8040 13522,7956 13534,7900 13536,7869 13539,7858 13542,7844 13545,7833 13575,7735 13640,7590 13679,7511 13684,7500 13698,7478 13698,7472 13698,7464 13687,7464 13684,7464 13681,7464 13676,7464 13673,7470 13623,7565 13584,7662 13545,7760 13542,7729 13542,7657 13503,7562 13481,7500 13442,7453 13375,7453 13252,7453 13182,7601 13182,7632 13182,7643 13190,7643 13202,7643 L 13204,7637 Z"/>
      </g>
     </g>
     <g class="Group">
      <g class="com.sun.star.drawing.PolyPolygonShape">
       <g id="id11"/>
      </g>
      <g class="com.sun.star.drawing.ClosedBezierShape">
       <g id="id12">
        <path fill="rgb(0,0,0)" stroke="none" d="M 1710,5062 C 1721,5062 1758,5062 1758,5026 1758,5003 1738,5003 1719,5003 L 1495,5003 C 1344,5003 1234,5166 1234,5283 1234,5373 1293,5440 1383,5440 1500,5440 1632,5322 1632,5168 1632,5152 1632,5104 1601,5062 L 1710,5062 Z M 1383,5420 C 1335,5420 1296,5384 1296,5311 1296,5283 1307,5202 1344,5143 1383,5073 1444,5062 1478,5062 1559,5062 1567,5126 1567,5157 1567,5202 1548,5283 1514,5334 1475,5392 1422,5420 1383,5420 Z"/>
       </g>
      </g>
      <g class="com.sun.star.drawing.ClosedBezierShape">
       <g id="id13">
        <path fill="rgb(0,0,0)" stroke="none" d="M 2018,4852 C 2077,4827 2102,4816 2119,4807 2133,4802 2138,4799 2138,4788 2138,4774 2130,4765 2116,4765 2110,4765 2110,4765 2102,4771 L 2007,4833 2018,4732 C 2018,4718 2018,4701 1996,4701 1987,4701 1976,4707 1976,4721 1976,4729 1979,4749 1979,4757 1979,4768 1984,4819 1987,4833 L 1892,4771 C 1887,4765 1884,4765 1878,4765 1864,4765 1856,4774 1856,4788 1856,4802 1864,4805 1870,4807 L 1976,4849 C 1917,4875 1892,4886 1875,4894 1861,4900 1856,4903 1856,4914 1856,4928 1864,4936 1878,4936 1881,4936 1884,4936 1892,4931 L 1987,4869 1976,4981 C 1976,4995 1987,5001 1996,5001 2004,5001 2018,4995 2018,4981 2018,4973 2015,4953 2015,4945 2012,4933 2010,4883 2007,4869 L 2091,4922 C 2108,4936 2110,4936 2116,4936 2130,4936 2138,4928 2138,4914 2138,4903 2130,4897 2124,4894 L 2018,4852 Z"/>
       </g>
      </g>
     </g>
     <g class="Group">
      <g class="com.sun.star.drawing.PolyPolygonShape">
       <g id="id14"/>
      </g>
      <g class="com.sun.star.drawing.ClosedBezierShape">
       <g id="id15">
        <path fill="rgb(0,0,255)" stroke="none" d="M 1658,6170 C 1669,6170 1706,6170 1706,6133 1706,6111 1686,6111 1667,6111 L 1443,6111 C 1292,6111 1182,6273 1182,6391 1182,6481 1241,6548 1331,6548 1448,6548 1580,6430 1580,6276 1580,6259 1580,6212 1549,6170 L 1658,6170 Z M 1331,6528 C 1283,6528 1244,6492 1244,6419 1244,6391 1255,6310 1292,6251 1331,6181 1392,6170 1426,6170 1507,6170 1516,6234 1516,6265 1516,6310 1496,6391 1462,6442 1423,6500 1370,6528 1331,6528 Z"/>
       </g>
      </g>
      <g class="com.sun.star.drawing.ClosedBezierShape">
       <g id="id16">
        <path fill="rgb(0,0,255)" stroke="none" d="M 1966,5960 C 2025,5935 2050,5923 2067,5915 2081,5909 2087,5906 2087,5895 2087,5881 2078,5873 2064,5873 2059,5873 2059,5873 2050,5878 L 1955,5940 1966,5839 C 1966,5825 1966,5808 1944,5808 1935,5808 1924,5814 1924,5828 1924,5836 1927,5856 1927,5864 1927,5876 1933,5926 1935,5940 L 1840,5878 C 1835,5873 1832,5873 1826,5873 1812,5873 1804,5881 1804,5895 1804,5909 1812,5912 1818,5915 L 1924,5957 C 1865,5982 1840,5993 1823,6002 1809,6007 1804,6010 1804,6021 1804,6035 1812,6044 1826,6044 1829,6044 1832,6044 1840,6038 L 1935,5977 1924,6089 C 1924,6103 1935,6108 1944,6108 1952,6108 1966,6103 1966,6089 1966,6080 1963,6061 1963,6052 1961,6041 1958,5991 1955,5977 L 2039,6030 C 2056,6044 2059,6044 2064,6044 2078,6044 2087,6035 2087,6021 2087,6010 2078,6005 2073,6002 L 1966,5960 Z"/>
       </g>
      </g>
      <g class="com.sun.star.drawing.ClosedBezierShape">
       <g id="id17">
        <path fill="rgb(0,0,255)" stroke="none" d="M 2660,5977 C 2672,5977 2688,5977 2688,5960 2688,5940 2674,5940 2660,5940 L 2249,5940 C 2238,5940 2221,5940 2221,5957 2221,5977 2238,5977 2249,5977 L 2660,5977 Z"/>
       </g>
      </g>
     </g>
     <g class="Group">
      <g class="com.sun.star.drawing.PolyPolygonShape">
       <g id="id18"/>
      </g>
      <g class="com.sun.star.drawing.ClosedBezierShape">
       <g id="id19">
        <path fill="rgb(255,0,0)" stroke="none" d="M 1660,3472 C 1672,3472 1708,3472 1708,3435 1708,3413 1688,3413 1669,3413 L 1445,3413 C 1294,3413 1184,3575 1184,3693 1184,3783 1243,3850 1333,3850 1450,3850 1582,3732 1582,3578 1582,3561 1582,3514 1551,3472 L 1660,3472 Z M 1333,3830 C 1285,3830 1246,3794 1246,3721 1246,3693 1257,3612 1294,3553 1333,3483 1394,3472 1428,3472 1509,3472 1518,3536 1518,3567 1518,3612 1498,3693 1464,3744 1425,3802 1372,3830 1333,3830 Z"/>
       </g>
      </g>
      <g class="com.sun.star.drawing.ClosedBezierShape">
       <g id="id20">
        <path fill="rgb(255,0,0)" stroke="none" d="M 1968,3262 C 2027,3237 2052,3225 2069,3217 2083,3211 2089,3208 2089,3197 2089,3183 2080,3175 2066,3175 2061,3175 2061,3175 2052,3180 L 1957,3242 1968,3141 C 1968,3127 1968,3110 1946,3110 1938,3110 1926,3116 1926,3130 1926,3138 1929,3158 1929,3166 1929,3178 1935,3228 1938,3242 L 1842,3180 C 1837,3175 1834,3175 1828,3175 1814,3175 1806,3183 1806,3197 1806,3211 1814,3214 1820,3217 L 1926,3259 C 1868,3284 1842,3295 1826,3304 1812,3309 1806,3312 1806,3323 1806,3337 1814,3346 1828,3346 1831,3346 1834,3346 1842,3340 L 1938,3279 1926,3391 C 1926,3405 1938,3410 1946,3410 1954,3410 1968,3405 1968,3391 1968,3382 1965,3363 1965,3354 1963,3343 1960,3293 1957,3279 L 2041,3332 C 2058,3346 2061,3346 2066,3346 2080,3346 2089,3337 2089,3323 2089,3312 2080,3307 2075,3304 L 1968,3262 Z"/>
       </g>
      </g>
      <g class="com.sun.star.drawing.ClosedBezierShape">
       <g id="id21">
        <path fill="rgb(255,0,0)" stroke="none" d="M 2469,3276 L 2682,3276 C 2691,3276 2707,3276 2707,3259 2707,3242 2691,3242 2682,3242 L 2469,3242 2469,3029 C 2469,3021 2469,3004 2453,3004 2436,3004 2436,3021 2436,3029 L 2436,3242 2223,3242 C 2215,3242 2198,3242 2198,3259 2198,3276 2215,3276 2223,3276 L 2436,3276 2436,3489 C 2436,3497 2436,3514 2453,3514 2469,3514 2469,3500 2469,3489 L 2469,3276 Z"/>
       </g>
      </g>
     </g>
     <g class="com.sun.star.drawing.LineShape">
      <g id="id22">
       <path fill="none" stroke="rgb(255,51,51)" stroke-width="40" stroke-linejoin="round" d="M 3000,3500 L 12300,3500"/>
      </g>
     </g>
     <g class="com.sun.star.drawing.LineShape">
      <g id="id23">
       <path fill="none" stroke="rgb(51,51,255)" stroke-width="40" stroke-linejoin="round" d="M 3000,6280 L 12200,6300"/>
      </g>
     </g>
     <g class="com.sun.star.drawing.CustomShape">
      <g id="id24">
       <path fill="rgb(255,0,0)" stroke="none" d="M 4150,3250 C 4292,3250 4400,3358 4400,3500 4400,3642 4292,3750 4150,3750 4008,3750 3900,3642 3900,3500 3900,3358 4008,3250 4150,3250 Z M 3900,3250 L 3900,3250 Z M 4401,3751 L 4401,3751 Z"/>
      </g>
     </g>
    </g>
   </g>
  </g>
 </g>
</svg>