<?xml version="1.0" encoding="UTF-8"?>

<svg version="1.2" baseProfile="tiny" width="150mm" height="92mm" viewBox="0 0 15000 9200" preserveAspectRatio="xMidYMid" fill-rule="evenodd" clip-path="url(#presentation_clip_path)" stroke-width="28.222" stroke-linejoin="round" xmlns="http://www.w3.org/2000/svg" xmlns:ooo="http://xml.openoffice.org/svg/export" xmlns:xlink="http://www.w3.org/1999/xlink" xml:space="preserve">
 <defs class="ClipPathGroup">
  <clipPath id="presentation_clip_path" clipPathUnits="userSpaceOnUse">
   <rect x="0" y="0" width="15000" height="9200"/>
  </clipPath>
 </defs>
 <defs class="TextShapeIndex">
  <g ooo:slide="id1" ooo:id-list="id3 id4 id5 id6 id7 id8 id9 id10 id11 id12 id13 id14 id15 id16 id17 id18 id19 id20 id21 id22 id23 id24 id25 id26 id27 id28"/>
 </defs>
 <defs class="EmbeddedBulletChars">
  <g id="bullet-char-template(57356)" transform="scale(0.00048828125,-0.00048828125)">
   <path d="M 580,1141 L 1163,571 580,0 -4,571 580,1141 Z"/>
  </g>
  <g id="bullet-char-template(57354)" transform="scale(0.00048828125,-0.00048828125)">
   <path d="M 8,1128 L 1137,1128 1137,0 8,0 8,1128 Z"/>
  </g>
  <g id="bullet-char-template(10146)" transform="scale(0.00048828125,-0.00048828125)">
   <path d="M 174,0 L 602,739 174,1481 1456,739 174,0 Z M 1358,739 L 309,1346 659,739 1358,739 Z"/>
  </g>
  <g id="bullet-char-template(10132)" transform="scale(0.00048828125,-0.00048828125)">
   <path d="M 2015,739 L 1276,0 717,0 1260,543 174,543 174,936 1260,936 717,1481 1274,1481 2015,739 Z"/>
  </g>
  <g id="bullet-char-template(10007)" transform="scale(0.00048828125,-0.00048828125)">
   <path d="M 0,-2 C -7,14 -16,27 -25,37 L 356,567 C 262,823 215,952 215,954 215,979 228,992 255,992 264,992 276,990 289,987 310,991 331,999 354,1012 L 381,999 492,748 772,1049 836,1024 860,1049 C 881,1039 901,1025 922,1006 886,937 835,863 770,784 769,783 710,716 594,584 L 774,223 C 774,196 753,168 711,139 L 727,119 C 717,90 699,76 672,76 641,76 570,178 457,381 L 164,-76 C 142,-110 111,-127 72,-127 30,-127 9,-110 8,-76 1,-67 -2,-52 -2,-32 -2,-23 -1,-13 0,-2 Z"/>
  </g>
  <g id="bullet-char-template(10004)" transform="scale(0.00048828125,-0.00048828125)">
   <path d="M 285,-33 C 182,-33 111,30 74,156 52,228 41,333 41,471 41,549 55,616 82,672 116,743 169,778 240,778 293,778 328,747 346,684 L 369,508 C 377,444 397,411 428,410 L 1163,1116 C 1174,1127 1196,1133 1229,1133 1271,1133 1292,1118 1292,1087 L 1292,965 C 1292,929 1282,901 1262,881 L 442,47 C 390,-6 338,-33 285,-33 Z"/>
  </g>
  <g id="bullet-char-template(9679)" transform="scale(0.00048828125,-0.00048828125)">
   <path d="M 813,0 C 632,0 489,54 383,161 276,268 223,411 223,592 223,773 276,916 383,1023 489,1130 632,1184 813,1184 992,1184 1136,1130 1245,1023 1353,916 1407,772 1407,592 1407,412 1353,268 1245,161 1136,54 992,0 813,0 Z"/>
  </g>
  <g id="bullet-char-template(8226)" transform="scale(0.00048828125,-0.00048828125)">
   <path d="M 346,457 C 273,457 209,483 155,535 101,586 74,649 74,723 74,796 101,859 155,911 209,963 273,989 346,989 419,989 480,963 531,910 582,859 608,796 608,723 608,648 583,586 532,535 482,483 420,457 346,457 Z"/>
  </g>
  <g id="bullet-char-template(8211)" transform="scale(0.00048828125,-0.00048828125)">
   <path d="M -4,459 L 1135,459 1135,606 -4,606 -4,459 Z"/>
  </g>
 </defs>
 <defs class="TextEmbeddedBitmaps"/>
 <g>
  <g id="id2" class="Master_Slide">
   <g id="bg-id2" class="Background"/>
   <g id="bo-id2" class="BackgroundObjects"/>
  </g>
 </g>
 <g class="SlideGroup">
  <g>
   <g id="id1" class="Slide" clip-path="url(#presentation_clip_path)">
    <g class="Page">
     <g class="com.sun.star.drawing.LineShape">
      <g id="id3">
       <path fill="none" stroke="rgb(51,51,255)" stroke-width="50" stroke-linejoin="round" d="M 11900,7000 L 11900,6902"/>
       <path fill="none" stroke="rgb(51,51,255)" stroke-width="50" stroke-linejoin="round" d="M 11900,6803 L 11900,6705"/>
       <path fill="none" stroke="rgb(51,51,255)" stroke-width="50" stroke-linejoin="round" d="M 11900,6606 L 11900,6508"/>
       <path fill="none" stroke="rgb(51,51,255)" stroke-width="50" stroke-linejoin="round" d="M 11900,6409 L 11900,6311"/>
       <path fill="none" stroke="rgb(51,51,255)" stroke-width="50" stroke-linejoin="round" d="M 11900,6212 L 11900,6114"/>
       <path fill="none" stroke="rgb(51,51,255)" stroke-width="50" stroke-linejoin="round" d="M 11900,6015 L 11900,5917"/>
       <path fill="none" stroke="rgb(51,51,255)" stroke-width="50" stroke-linejoin="round" d="M 11900,5818 L 11900,5720"/>
       <path fill="none" stroke="rgb(51,51,255)" stroke-width="50" stroke-linejoin="round" d="M 11900,5621 L 11900,5523"/>
       <path fill="none" stroke="rgb(51,51,255)" stroke-width="50" stroke-linejoin="round" d="M 11900,5424 L 11900,5326"/>
       <path fill="none" stroke="rgb(51,51,255)" stroke-width="50" stroke-linejoin="round" d="M 11900,5227 L 11900,5129"/>
       <path fill="none" stroke="rgb(51,51,255)" stroke-width="50" stroke-linejoin="round" d="M 11900,5030 L 11900,4932"/>
       <path fill="none" stroke="rgb(51,51,255)" stroke-width="50" stroke-linejoin="round" d="M 11900,4833 L 11900,4735"/>
       <path fill="none" stroke="rgb(51,51,255)" stroke-width="50" stroke-linejoin="round" d="M 11900,4636 L 11900,4538"/>
       <path fill="none" stroke="rgb(51,51,255)" stroke-width="50" stroke-linejoin="round" d="M 11900,4439 L 11900,4341"/>
       <path fill="none" stroke="rgb(51,51,255)" stroke-width="50" stroke-linejoin="round" d="M 11900,4242 L 11900,4144"/>
       <path fill="none" stroke="rgb(51,51,255)" stroke-width="50" stroke-linejoin="round" d="M 11900,4045 L 11900,3947"/>
       <path fill="none" stroke="rgb(51,51,255)" stroke-width="50" stroke-linejoin="round" d="M 11900,3848 L 11900,3750"/>
       <path fill="none" stroke="rgb(51,51,255)" stroke-width="50" stroke-linejoin="round" d="M 11900,3651 L 11900,3553"/>
       <path fill="none" stroke="rgb(51,51,255)" stroke-width="50" stroke-linejoin="round" d="M 11900,3454 L 11900,3355"/>
       <path fill="none" stroke="rgb(51,51,255)" stroke-width="50" stroke-linejoin="round" d="M 11900,3257 L 11900,3159"/>
       <path fill="none" stroke="rgb(51,51,255)" stroke-width="50" stroke-linejoin="round" d="M 11900,3060 L 11900,2962"/>
       <path fill="none" stroke="rgb(51,51,255)" stroke-width="50" stroke-linejoin="round" d="M 11900,2863 L 11900,2765"/>
       <path fill="none" stroke="rgb(51,51,255)" stroke-width="50" stroke-linejoin="round" d="M 11900,2666 L 11900,2568"/>
       <path fill="none" stroke="rgb(51,51,255)" stroke-width="50" stroke-linejoin="round" d="M 11900,2469 L 11900,2371"/>
       <path fill="none" stroke="rgb(51,51,255)" stroke-width="50" stroke-linejoin="round" d="M 11900,2272 L 11900,2174"/>
       <path fill="none" stroke="rgb(51,51,255)" stroke-width="50" stroke-linejoin="round" d="M 11900,2075 L 11900,1977"/>
       <path fill="none" stroke="rgb(51,51,255)" stroke-width="50" stroke-linejoin="round" d="M 11900,1878 L 11900,1780"/>
       <path fill="none" stroke="rgb(51,51,255)" stroke-width="50" stroke-linejoin="round" d="M 11900,1681 L 11900,1583"/>
       <path fill="none" stroke="rgb(51,51,255)" stroke-width="50" stroke-linejoin="round" d="M 11900,1484 L 11900,1386"/>
       <path fill="none" stroke="rgb(51,51,255)" stroke-width="50" stroke-linejoin="round" d="M 11900,1287 L 11900,1189"/>
       <path fill="none" stroke="rgb(51,51,255)" stroke-width="50" stroke-linejoin="round" d="M 11900,1090 L 11900,1000"/>
      </g>
     </g>
     <g class="com.sun.star.drawing.LineShape">
      <g id="id4">
       <path fill="none" stroke="rgb(0,0,0)" stroke-width="50" stroke-linejoin="round" d="M 3000,7000 L 3000,2038"/>
       <path fill="rgb(0,0,0)" stroke="none" d="M 3000,1500 L 2813,2063 3188,2063 3000,1500 Z"/>
      </g>
     </g>
     <g class="com.sun.star.drawing.LineShape">
      <g id="id5">
       <path fill="none" stroke="rgb(0,0,0)" stroke-width="50" stroke-linejoin="round" d="M 3000,7000 L 13163,7000"/>
       <path fill="rgb(0,0,0)" stroke="none" d="M 13700,7000 L 13138,6813 13138,7188 13700,7000 Z"/>
      </g>
     </g>
     <g class="com.sun.star.drawing.CustomShape">
      <g id="id6">
       <path fill="rgb(0,0,255)" stroke="none" d="M 9750,5420 C 9892,5420 10000,5528 10000,5670 10000,5812 9892,5920 9750,5920 9608,5920 9500,5812 9500,5670 9500,5528 9608,5420 9750,5420 Z M 9500,5420 L 9500,5420 Z M 10001,5921 L 10001,5921 Z"/>
      </g>
     </g>
     <g class="Group">
      <g class="com.sun.star.drawing.PolyPolygonShape">
       <g id="id7"/>
      </g>
      <g class="com.sun.star.drawing.ClosedBezierShape">
       <g id="id8">
        <path fill="rgb(0,0,0)" stroke="none" d="M 2760,1528 C 2766,1511 2769,1497 2769,1471 2769,1407 2729,1365 2654,1365 2578,1365 2525,1415 2503,1452 2497,1396 2455,1365 2411,1365 2366,1365 2346,1404 2338,1421 2321,1455 2307,1513 2307,1516 2307,1527 2318,1528 2318,1528 2329,1528 2329,1528 2335,1505 2352,1435 2371,1387 2408,1387 2424,1387 2438,1396 2438,1432 2438,1452 2436,1463 2422,1516 L 2366,1743 C 2363,1757 2357,1782 2357,1785 2357,1805 2371,1813 2385,1813 2397,1813 2416,1805 2422,1785 2422,1782 2436,1738 2441,1712 L 2464,1623 C 2469,1600 2475,1581 2480,1556 2480,1550 2489,1519 2489,1513 2492,1502 2522,1449 2556,1421 2578,1404 2609,1387 2651,1387 2696,1387 2707,1421 2707,1455 2707,1460 2707,1480 2696,1519 L 2584,1973 C 2581,1984 2581,1987 2581,1990 2581,2004 2590,2015 2606,2015 2637,2015 2646,1987 2648,1976 L 2760,1528 Z"/>
       </g>
      </g>
     </g>
     <g class="Group">
      <g class="com.sun.star.drawing.PolyPolygonShape">
       <g id="id9"/>
      </g>
      <g class="com.sun.star.drawing.ClosedBezierShape">
       <g id="id10">
        <path fill="rgb(0,0,0)" stroke="none" d="M 13613,7254 L 13616,7243 C 13616,7240 13616,7232 13605,7232 13594,7232 13594,7235 13591,7252 L 13532,7479 C 13375,7484 13230,7616 13230,7750 13230,7845 13300,7921 13420,7930 13412,7960 13406,7991 13398,8022 13384,8070 13375,8106 13375,8109 13375,8120 13381,8120 13386,8120 13392,8120 13395,8120 13398,8117 13398,8114 13406,8089 13409,8075 L 13445,7930 C 13605,7924 13748,7792 13748,7658 13748,7579 13694,7490 13557,7479 L 13613,7254 Z M 13426,7907 C 13364,7904 13294,7871 13294,7773 13294,7652 13378,7515 13526,7501 L 13426,7907 Z M 13552,7501 C 13627,7507 13683,7551 13683,7638 13683,7756 13599,7896 13451,7907 L 13552,7501 Z"/>
       </g>
      </g>
     </g>
     <g class="com.sun.star.drawing.LineShape">
      <g id="id11">
       <path fill="none" stroke="rgb(255,51,51)" stroke-width="50" stroke-linejoin="round" d="M 9400,7000 L 9400,6902"/>
       <path fill="none" stroke="rgb(255,51,51)" stroke-width="50" stroke-linejoin="round" d="M 9400,6803 L 9400,6705"/>
       <path fill="none" stroke="rgb(255,51,51)" stroke-width="50" stroke-linejoin="round" d="M 9400,6606 L 9400,6508"/>
       <path fill="none" stroke="rgb(255,51,51)" stroke-width="50" stroke-linejoin="round" d="M 9400,6409 L 9400,6311"/>
       <path fill="none" stroke="rgb(255,51,51)" stroke-width="50" stroke-linejoin="round" d="M 9400,6212 L 9400,6114"/>
       <path fill="none" stroke="rgb(255,51,51)" stroke-width="50" stroke-linejoin="round" d="M 9400,6015 L 9400,5917"/>
       <path fill="none" stroke="rgb(255,51,51)" stroke-width="50" stroke-linejoin="round" d="M 9400,5818 L 9400,5720"/>
       <path fill="none" stroke="rgb(255,51,51)" stroke-width="50" stroke-linejoin="round" d="M 9400,5621 L 9400,5523"/>
       <path fill="none" stroke="rgb(255,51,51)" stroke-width="50" stroke-linejoin="round" d="M 9400,5424 L 9400,5326"/>
       <path fill="none" stroke="rgb(255,51,51)" stroke-width="50" stroke-linejoin="round" d="M 9400,5227 L 9400,5129"/>
       <path fill="none" stroke="rgb(255,51,51)" stroke-width="50" stroke-linejoin="round" d="M 9400,5030 L 9400,4932"/>
       <path fill="none" stroke="rgb(255,51,51)" stroke-width="50" stroke-linejoin="round" d="M 9400,4833 L 9400,4735"/>
       <path fill="none" stroke="rgb(255,51,51)" stroke-width="50" stroke-linejoin="round" d="M 9400,4636 L 9400,4538"/>
       <path fill="none" stroke="rgb(255,51,51)" stroke-width="50" stroke-linejoin="round" d="M 9400,4439 L 9400,4341"/>
       <path fill="none" stroke="rgb(255,51,51)" stroke-width="50" stroke-linejoin="round" d="M 9400,4242 L 9400,4144"/>
       <path fill="none" stroke="rgb(255,51,51)" stroke-width="50" stroke-linejoin="round" d="M 9400,4045 L 9400,3947"/>
       <path fill="none" stroke="rgb(255,51,51)" stroke-width="50" stroke-linejoin="round" d="M 9400,3848 L 9400,3750"/>
       <path fill="none" stroke="rgb(255,51,51)" stroke-width="50" stroke-linejoin="round" d="M 9400,3651 L 9400,3553"/>
       <path fill="none" stroke="rgb(255,51,51)" stroke-width="50" stroke-linejoin="round" d="M 9400,3454 L 9400,3355"/>
       <path fill="none" stroke="rgb(255,51,51)" stroke-width="50" stroke-linejoin="round" d="M 9400,3257 L 9400,3159"/>
       <path fill="none" stroke="rgb(255,51,51)" stroke-width="50" stroke-linejoin="round" d="M 9400,3060 L 9400,2962"/>
       <path fill="none" stroke="rgb(255,51,51)" stroke-width="50" stroke-linejoin="round" d="M 9400,2863 L 9400,2765"/>
       <path fill="none" stroke="rgb(255,51,51)" stroke-width="50" stroke-linejoin="round" d="M 9400,2666 L 9400,2568"/>
       <path fill="none" stroke="rgb(255,51,51)" stroke-width="50" stroke-linejoin="round" d="M 9400,2469 L 9400,2371"/>
       <path fill="none" stroke="rgb(255,51,51)" stroke-width="50" stroke-linejoin="round" d="M 9400,2272 L 9400,2174"/>
       <path fill="none" stroke="rgb(255,51,51)" stroke-width="50" stroke-linejoin="round" d="M 9400,2075 L 9400,1977"/>
       <path fill="none" stroke="rgb(255,51,51)" stroke-width="50" stroke-linejoin="round" d="M 9400,1878 L 9400,1780"/>
       <path fill="none" stroke="rgb(255,51,51)" stroke-width="50" stroke-linejoin="round" d="M 9400,1681 L 9400,1583"/>
       <path fill="none" stroke="rgb(255,51,51)" stroke-width="50" stroke-linejoin="round" d="M 9400,1484 L 9400,1386"/>
       <path fill="none" stroke="rgb(255,51,51)" stroke-width="50" stroke-linejoin="round" d="M 9400,1287 L 9400,1189"/>
       <path fill="none" stroke="rgb(255,51,51)" stroke-width="50" stroke-linejoin="round" d="M 9400,1090 L 9400,1000"/>
      </g>
     </g>
     <g class="com.sun.star.drawing.OpenBezierShape">
      <g id="id12">
       <path fill="none" stroke="rgb(255,51,51)" stroke-width="100" stroke-linejoin="round" d="M 3000,6600 C 4800,6500 5660,6499 6800,5900 7593,5483 8301,4802 8700,4000 9134,3126 9300,1900 9300,1000"/>
      </g>
     </g>
     <g class="com.sun.star.drawing.OpenBezierShape">
      <g id="id13">
       <path fill="none" stroke="rgb(51,51,255)" stroke-width="100" stroke-linejoin="round" d="M 3000,6700 C 4800,6600 8160,6500 9300,5901 10093,5484 10801,4803 11200,4001 11634,3127 11800,1901 11800,1001"/>
      </g>
     </g>
     <g class="Group">
      <g class="com.sun.star.drawing.PolyPolygonShape">
       <g id="id14"/>
      </g>
      <g class="com.sun.star.drawing.ClosedBezierShape">
       <g id="id15">
        <path fill="rgb(255,0,0)" stroke="none" d="M 9416,7350 L 9419,7338 C 9419,7336 9419,7327 9408,7327 9397,7327 9397,7330 9394,7347 L 9335,7574 C 9178,7579 9033,7711 9033,7845 9033,7941 9103,8016 9223,8025 9215,8056 9209,8086 9201,8117 9187,8165 9178,8201 9178,8204 9178,8215 9184,8215 9189,8215 9195,8215 9198,8215 9201,8212 9201,8210 9209,8184 9212,8170 L 9248,8025 C 9408,8019 9551,7887 9551,7753 9551,7675 9497,7585 9360,7574 L 9416,7350 Z M 9229,8002 C 9167,7999 9097,7966 9097,7868 9097,7747 9181,7610 9329,7596 L 9229,8002 Z M 9355,7596 C 9430,7602 9486,7647 9486,7733 9486,7851 9402,7991 9254,8002 L 9355,7596 Z"/>
       </g>
      </g>
      <g class="com.sun.star.drawing.ClosedBezierShape">
       <g id="id16">
        <path fill="rgb(255,0,0)" stroke="none" d="M 9610,7649 C 9607,7661 9607,7663 9607,7663 9607,7680 9618,7686 9629,7686 9654,7686 9660,7663 9663,7652 9666,7649 9680,7593 9696,7523 9716,7540 9744,7546 9769,7546 9831,7546 9867,7495 9870,7495 9884,7543 9932,7546 9940,7546 9965,7546 9982,7529 9996,7509 10010,7481 10021,7442 10021,7439 10021,7431 10010,7431 10010,7431 9999,7431 9999,7434 9993,7450 9985,7484 9974,7526 9943,7526 9926,7526 9920,7509 9920,7492 9920,7478 9926,7453 9932,7436 9934,7417 9943,7389 9946,7375 L 9962,7313 C 9965,7296 9974,7266 9974,7260 9974,7246 9962,7238 9951,7238 9943,7238 9929,7243 9923,7254 9920,7260 9915,7282 9912,7296 L 9898,7352 9876,7439 C 9870,7456 9870,7459 9864,7467 9842,7498 9811,7526 9772,7526 9716,7526 9716,7476 9716,7464 9716,7445 9719,7436 9727,7400 9736,7369 9736,7364 9744,7336 L 9752,7299 C 9755,7282 9764,7257 9764,7254 9764,7240 9752,7232 9738,7232 9713,7232 9708,7257 9705,7266 L 9610,7649 Z"/>
       </g>
      </g>
      <g class="com.sun.star.drawing.ClosedBezierShape">
       <g id="id17">
        <path fill="rgb(255,0,0)" stroke="none" d="M 9814,8198 C 9814,8260 9775,8296 9736,8296 9713,8296 9677,8288 9657,8263 9682,8260 9696,8243 9696,8224 9696,8201 9680,8184 9657,8184 9635,8184 9618,8198 9618,8224 9618,8277 9671,8316 9738,8316 9803,8316 9862,8280 9873,8221 9876,8212 9876,8182 9876,8162 L 9876,7904 C 9876,7893 9876,7873 9878,7868 9881,7854 9898,7854 9929,7854 L 9929,7829 C 9926,7829 9876,7831 9842,7831 9825,7831 9733,7829 9719,7829 L 9719,7854 9744,7854 C 9814,7854 9814,7862 9814,7885 L 9814,8198 Z"/>
       </g>
      </g>
     </g>
     <g class="Group">
      <g class="com.sun.star.drawing.PolyPolygonShape">
       <g id="id18"/>
      </g>
      <g class="com.sun.star.drawing.ClosedBezierShape">
       <g id="id19">
        <path fill="rgb(0,0,255)" stroke="none" d="M 11917,7336 L 11920,7325 C 11920,7322 11920,7314 11909,7314 11898,7314 11898,7317 11895,7334 L 11836,7561 C 11679,7566 11534,7698 11534,7832 11534,7927 11604,8003 11724,8012 11716,8042 11710,8073 11702,8104 11688,8152 11679,8188 11679,8191 11679,8202 11685,8202 11690,8202 11696,8202 11699,8202 11702,8199 11702,8196 11710,8171 11713,8157 L 11749,8012 C 11909,8006 12051,7874 12051,7740 12051,7661 11998,7572 11861,7561 L 11917,7336 Z M 11730,7989 C 11668,7986 11598,7953 11598,7855 11598,7734 11682,7597 11830,7583 L 11730,7989 Z M 11856,7583 C 11931,7589 11987,7633 11987,7720 11987,7838 11903,7978 11755,7989 L 11856,7583 Z"/>
       </g>
      </g>
      <g class="com.sun.star.drawing.ClosedBezierShape">
       <g id="id20">
        <path fill="rgb(0,0,255)" stroke="none" d="M 12429,7370 C 12429,7294 12421,7241 12390,7191 12368,7160 12323,7132 12270,7132 12107,7132 12107,7322 12107,7370 12107,7421 12107,7605 12270,7605 12429,7605 12429,7421 12429,7370 Z M 12270,7586 C 12236,7586 12194,7569 12180,7510 12172,7471 12172,7412 12172,7362 12172,7311 12172,7258 12180,7222 12197,7166 12239,7152 12270,7152 12306,7152 12343,7174 12354,7213 12365,7252 12368,7303 12368,7362 12368,7412 12368,7465 12357,7507 12343,7572 12298,7586 12270,7586 Z"/>
       </g>
      </g>
      <g class="com.sun.star.drawing.ClosedBezierShape">
       <g id="id21">
        <path fill="rgb(0,0,255)" stroke="none" d="M 12315,8140 C 12315,8202 12275,8238 12236,8238 12214,8238 12177,8230 12158,8205 12183,8202 12197,8185 12197,8166 12197,8143 12180,8126 12158,8126 12135,8126 12119,8140 12119,8166 12119,8219 12172,8258 12239,8258 12303,8258 12362,8222 12373,8163 12376,8154 12376,8124 12376,8104 L 12376,7846 C 12376,7835 12376,7815 12379,7810 12382,7796 12399,7796 12429,7796 L 12429,7771 C 12427,7771 12376,7773 12343,7773 12326,7773 12233,7771 12219,7771 L 12219,7796 12245,7796 C 12315,7796 12315,7804 12315,7827 L 12315,8140 Z"/>
       </g>
      </g>
     </g>
     <g class="com.sun.star.drawing.OpenBezierShape">
      <g id="id22">
       <path fill="none" stroke="rgb(0,0,0)" stroke-width="100" stroke-linejoin="round" d="M 9800,5400 C 10000,5300 10500,3500 10500,3100 10500,2700 10500,1779 10500,1280"/>
       <path fill="rgb(0,0,0)" stroke="none" d="M 10500,1000 L 10400,1300 10600,1300 10500,1000 Z"/>
      </g>
     </g>
     <g class="com.sun.star.drawing.LineShape">
      <g id="id23">
       <path fill="none" stroke="rgb(0,0,0)" stroke-width="50" stroke-linejoin="round" d="M 9730,7000 L 9730,6902"/>
       <path fill="none" stroke="rgb(0,0,0)" stroke-width="50" stroke-linejoin="round" d="M 9730,6803 L 9730,6705"/>
       <path fill="none" stroke="rgb(0,0,0)" stroke-width="50" stroke-linejoin="round" d="M 9730,6606 L 9730,6508"/>
       <path fill="none" stroke="rgb(0,0,0)" stroke-width="50" stroke-linejoin="round" d="M 9730,6409 L 9730,6311"/>
       <path fill="none" stroke="rgb(0,0,0)" stroke-width="50" stroke-linejoin="round" d="M 9730,6212 L 9730,6114"/>
       <path fill="none" stroke="rgb(0,0,0)" stroke-width="50" stroke-linejoin="round" d="M 9730,6015 L 9730,5917"/>
       <path fill="none" stroke="rgb(0,0,0)" stroke-width="50" stroke-linejoin="round" d="M 9730,5818 L 9730,5720"/>
       <path fill="none" stroke="rgb(0,0,0)" stroke-width="50" stroke-linejoin="round" d="M 9730,5621 L 9730,5523"/>
       <path fill="none" stroke="rgb(0,0,0)" stroke-width="50" stroke-linejoin="round" d="M 9730,5424 L 9730,5326"/>
       <path fill="none" stroke="rgb(0,0,0)" stroke-width="50" stroke-linejoin="round" d="M 9730,5227 L 9730,5129"/>
       <path fill="none" stroke="rgb(0,0,0)" stroke-width="50" stroke-linejoin="round" d="M 9730,5030 L 9730,4932"/>
       <path fill="none" stroke="rgb(0,0,0)" stroke-width="50" stroke-linejoin="round" d="M 9730,4833 L 9730,4735"/>
       <path fill="none" stroke="rgb(0,0,0)" stroke-width="50" stroke-linejoin="round" d="M 9730,4636 L 9730,4538"/>
       <path fill="none" stroke="rgb(0,0,0)" stroke-width="50" stroke-linejoin="round" d="M 9730,4439 L 9730,4341"/>
       <path fill="none" stroke="rgb(0,0,0)" stroke-width="50" stroke-linejoin="round" d="M 9730,4242 L 9730,4144"/>
       <path fill="none" stroke="rgb(0,0,0)" stroke-width="50" stroke-linejoin="round" d="M 9730,4045 L 9730,3947"/>
       <path fill="none" stroke="rgb(0,0,0)" stroke-width="50" stroke-linejoin="round" d="M 9730,3848 L 9730,3750"/>
       <path fill="none" stroke="rgb(0,0,0)" stroke-width="50" stroke-linejoin="round" d="M 9730,3651 L 9730,3553"/>
       <path fill="none" stroke="rgb(0,0,0)" stroke-width="50" stroke-linejoin="round" d="M 9730,3454 L 9730,3355"/>
       <path fill="none" stroke="rgb(0,0,0)" stroke-width="50" stroke-linejoin="round" d="M 9730,3257 L 9730,3159"/>
       <path fill="none" stroke="rgb(0,0,0)" stroke-width="50" stroke-linejoin="round" d="M 9730,3060 L 9730,2962"/>
       <path fill="none" stroke="rgb(0,0,0)" stroke-width="50" stroke-linejoin="round" d="M 9730,2863 L 9730,2765"/>
       <path fill="none" stroke="rgb(0,0,0)" stroke-width="50" stroke-linejoin="round" d="M 9730,2666 L 9730,2568"/>
       <path fill="none" stroke="rgb(0,0,0)" stroke-width="50" stroke-linejoin="round" d="M 9730,2469 L 9730,2371"/>
       <path fill="none" stroke="rgb(0,0,0)" stroke-width="50" stroke-linejoin="round" d="M 9730,2272 L 9730,2174"/>
       <path fill="none" stroke="rgb(0,0,0)" stroke-width="50" stroke-linejoin="round" d="M 9730,2075 L 9730,1977"/>
       <path fill="none" stroke="rgb(0,0,0)" stroke-width="50" stroke-linejoin="round" d="M 9730,1878 L 9730,1780"/>
       <path fill="none" stroke="rgb(0,0,0)" stroke-width="50" stroke-linejoin="round" d="M 9730,1681 L 9730,1583"/>
       <path fill="none" stroke="rgb(0,0,0)" stroke-width="50" stroke-linejoin="round" d="M 9730,1484 L 9730,1386"/>
       <path fill="none" stroke="rgb(0,0,0)" stroke-width="50" stroke-linejoin="round" d="M 9730,1287 L 9730,1189"/>
       <path fill="none" stroke="rgb(0,0,0)" stroke-width="50" stroke-linejoin="round" d="M 9730,1090 L 9730,1000"/>
      </g>
     </g>
     <g class="Group">
      <g class="com.sun.star.drawing.PolyPolygonShape">
       <g id="id24"/>
      </g>
      <g class="com.sun.star.drawing.ClosedBezierShape">
       <g id="id25">
        <path fill="rgb(0,153,0)" stroke="none" d="M 8293,7341 L 8295,7331 C 8295,7328 8295,7320 8285,7320 8274,7320 8274,7323 8272,7339 L 8217,7549 C 8071,7554 7936,7677 7936,7801 7936,7890 8001,7960 8113,7968 8105,7996 8100,8025 8092,8053 8079,8098 8071,8131 8071,8134 8071,8144 8077,8144 8082,8144 8087,8144 8090,8144 8092,8142 8092,8139 8100,8116 8103,8103 L 8136,7968 C 8285,7962 8417,7840 8417,7716 8417,7643 8368,7560 8241,7549 L 8293,7341 Z M 8118,7947 C 8061,7944 7996,7913 7996,7822 7996,7710 8074,7583 8212,7570 L 8118,7947 Z M 8235,7570 C 8306,7575 8358,7617 8358,7697 8358,7806 8280,7936 8142,7947 L 8235,7570 Z"/>
       </g>
      </g>
      <g class="com.sun.star.drawing.ClosedBezierShape">
       <g id="id26">
        <path fill="rgb(0,153,0)" stroke="none" d="M 8472,7619 C 8469,7630 8469,7632 8469,7632 8469,7648 8480,7653 8490,7653 8514,7653 8519,7632 8521,7622 8524,7619 8537,7567 8553,7502 8571,7518 8597,7523 8620,7523 8678,7523 8711,7476 8714,7476 8727,7521 8771,7523 8779,7523 8802,7523 8818,7508 8831,7489 8844,7463 8854,7427 8854,7424 8854,7417 8844,7417 8844,7417 8834,7417 8834,7419 8828,7435 8821,7466 8810,7505 8782,7505 8766,7505 8761,7489 8761,7474 8761,7461 8766,7437 8771,7422 8774,7404 8782,7378 8784,7365 L 8800,7307 C 8802,7292 8810,7263 8810,7258 8810,7245 8800,7237 8789,7237 8782,7237 8769,7242 8763,7253 8761,7258 8756,7279 8753,7292 L 8740,7344 8719,7424 C 8714,7440 8714,7443 8709,7450 8688,7479 8659,7505 8623,7505 8571,7505 8571,7458 8571,7448 8571,7430 8573,7422 8581,7388 8589,7359 8589,7354 8597,7328 L 8605,7294 C 8607,7279 8615,7255 8615,7253 8615,7240 8605,7232 8592,7232 8568,7232 8563,7255 8560,7263 L 8472,7619 Z"/>
       </g>
      </g>
      <g class="com.sun.star.drawing.ClosedBezierShape">
       <g id="id27">
        <path fill="rgb(0,153,0)" stroke="none" d="M 8662,8129 C 8662,8186 8625,8220 8589,8220 8568,8220 8534,8212 8516,8189 8540,8186 8553,8170 8553,8152 8553,8131 8537,8116 8516,8116 8495,8116 8480,8129 8480,8152 8480,8202 8529,8238 8592,8238 8652,8238 8706,8204 8717,8150 8719,8142 8719,8113 8719,8095 L 8719,7856 C 8719,7845 8719,7827 8722,7822 8724,7809 8740,7809 8769,7809 L 8769,7786 C 8766,7786 8719,7788 8688,7788 8672,7788 8586,7786 8573,7786 L 8573,7809 8597,7809 C 8662,7809 8662,7817 8662,7838 L 8662,8129 Z"/>
       </g>
      </g>
     </g>
     <g class="com.sun.star.drawing.LineShape">
      <g id="id28">
       <path fill="none" stroke="rgb(0,153,0)" stroke-width="50" stroke-linejoin="round" d="M 8530,7000 L 8530,6902"/>
       <path fill="none" stroke="rgb(0,153,0)" stroke-width="50" stroke-linejoin="round" d="M 8530,6803 L 8530,6705"/>
       <path fill="none" stroke="rgb(0,153,0)" stroke-width="50" stroke-linejoin="round" d="M 8530,6606 L 8530,6508"/>
       <path fill="none" stroke="rgb(0,153,0)" stroke-width="50" stroke-linejoin="round" d="M 8530,6409 L 8530,6311"/>
       <path fill="none" stroke="rgb(0,153,0)" stroke-width="50" stroke-linejoin="round" d="M 8530,6212 L 8530,6114"/>
       <path fill="none" stroke="rgb(0,153,0)" stroke-width="50" stroke-linejoin="round" d="M 8530,6015 L 8530,5917"/>
       <path fill="none" stroke="rgb(0,153,0)" stroke-width="50" stroke-linejoin="round" d="M 8530,5818 L 8530,5720"/>
       <path fill="none" stroke="rgb(0,153,0)" stroke-width="50" stroke-linejoin="round" d="M 8530,5621 L 8530,5523"/>
       <path fill="none" stroke="rgb(0,153,0)" stroke-width="50" stroke-linejoin="round" d="M 8530,5424 L 8530,5326"/>
       <path fill="none" stroke="rgb(0,153,0)" stroke-width="50" stroke-linejoin="round" d="M 8530,5227 L 8530,5129"/>
       <path fill="none" stroke="rgb(0,153,0)" stroke-width="50" stroke-linejoin="round" d="M 8530,5030 L 8530,4932"/>
       <path fill="none" stroke="rgb(0,153,0)" stroke-width="50" stroke-linejoin="round" d="M 8530,4833 L 8530,4735"/>
       <path fill="none" stroke="rgb(0,153,0)" stroke-width="50" stroke-linejoin="round" d="M 8530,4636 L 8530,4538"/>
       <path fill="none" stroke="rgb(0,153,0)" stroke-width="50" stroke-linejoin="round" d="M 8530,4439 L 8530,4341"/>
       <path fill="none" stroke="rgb(0,153,0)" stroke-width="50" stroke-linejoin="round" d="M 8530,4242 L 8530,4144"/>
       <path fill="none" stroke="rgb(0,153,0)" stroke-width="50" stroke-linejoin="round" d="M 8530,4045 L 8530,3947"/>
       <path fill="none" stroke="rgb(0,153,0)" stroke-width="50" stroke-linejoin="round" d="M 8530,3848 L 8530,3750"/>
       <path fill="none" stroke="rgb(0,153,0)" stroke-width="50" stroke-linejoin="round" d="M 8530,3651 L 8530,3553"/>
       <path fill="none" stroke="rgb(0,153,0)" stroke-width="50" stroke-linejoin="round" d="M 8530,3454 L 8530,3355"/>
       <path fill="none" stroke="rgb(0,153,0)" stroke-width="50" stroke-linejoin="round" d="M 8530,3257 L 8530,3159"/>
       <path fill="none" stroke="rgb(0,153,0)" stroke-width="50" stroke-linejoin="round" d="M 8530,3060 L 8530,2962"/>
       <path fill="none" stroke="rgb(0,153,0)" stroke-width="50" stroke-linejoin="round" d="M 8530,2863 L 8530,2765"/>
       <path fill="none" stroke="rgb(0,153,0)" stroke-width="50" stroke-linejoin="round" d="M 8530,2666 L 8530,2568"/>
       <path fill="none" stroke="rgb(0,153,0)" stroke-width="50" stroke-linejoin="round" d="M 8530,2469 L 8530,2371"/>
       <path fill="none" stroke="rgb(0,153,0)" stroke-width="50" stroke-linejoin="round" d="M 8530,2272 L 8530,2174"/>
       <path fill="none" stroke="rgb(0,153,0)" stroke-width="50" stroke-linejoin="round" d="M 8530,2075 L 8530,1977"/>
       <path fill="none" stroke="rgb(0,153,0)" stroke-width="50" stroke-linejoin="round" d="M 8530,1878 L 8530,1780"/>
       <path fill="none" stroke="rgb(0,153,0)" stroke-width="50" stroke-linejoin="round" d="M 8530,1681 L 8530,1583"/>
       <path fill="none" stroke="rgb(0,153,0)" stroke-width="50" stroke-linejoin="round" d="M 8530,1484 L 8530,1386"/>
       <path fill="none" stroke="rgb(0,153,0)" stroke-width="50" stroke-linejoin="round" d="M 8530,1287 L 8530,1189"/>
       <path fill="none" stroke="rgb(0,153,0)" stroke-width="50" stroke-linejoin="round" d="M 8530,1090 L 8530,1000"/>
      </g>
     </g>
    </g>
   </g>
  </g>
 </g>
</svg>